<?xml version="1.0" encoding="UTF-8" standalone="no"?>
<!-- Copyright 2017 mathsisfun.com -->

<svg
   width="153.2"
   height="71.3"
   version="1.1"
   id="svg59446"
   sodipodi:docname="matrix-example.svg"
   inkscape:version="1.2.1 (9c6d41e410, 2022-07-14)"
   xmlns:inkscape="http://www.inkscape.org/namespaces/inkscape"
   xmlns:sodipodi="http://sodipodi.sourceforge.net/DTD/sodipodi-0.dtd"
   xmlns="http://www.w3.org/2000/svg"
   xmlns:svg="http://www.w3.org/2000/svg">
  <sodipodi:namedview
     id="namedview59448"
     pagecolor="#ffffff"
     bordercolor="#666666"
     borderopacity="1.0"
     inkscape:showpageshadow="2"
     inkscape:pageopacity="0.0"
     inkscape:pagecheckerboard="0"
     inkscape:deskcolor="#d1d1d1"
     showgrid="false"
     inkscape:zoom="3.30996"
     inkscape:cx="76.8892"
     inkscape:cy="35.8011"
     inkscape:current-layer="svg59446" />
  <defs
     id="defs59426" />
  <path
     style="color:#000000;overflow:visible;fill:#0169c9;stroke:#636466;stroke-width:0.17;stroke-linejoin:round"
     d="m 13.364,4.33 c -3.4,-0.9 -7.4,-0.3 -10.6,-0.5 2.8,-2.8 1,3 1.5,4.9 -0.2,15 -0.8,30 -0.6,45 0.2,4.8 -0.3,9.6 0.2,14.3 -1.2,-0.6 2.1,-0.2 3,-0.3 2.2,0 4.5,0 6.7,0 0,1.6 1.1,4.4 -1.6,3.6 -3.2,-0.2 -6.6,0.3 -9.7,-0.3 -3.3,-1.9 -1.8,-6.2 -2.2,-9.3 0,-16.5 0,-33 0.6,-49.6 0.2,-3.6 -0.3,-7.2 0.2,-10.7 1.5,-2.2 4.5,-0.9 6.8,-1.2 1.9,0.2 5.5,-0.7 6.1,1.2 0,1 -0.4,2 -0.3,3 z"
     id="path59428" />
  <path
     style="color:#000000;overflow:visible;fill:#0169c9;stroke:#636466;stroke-width:0.17;stroke-linejoin:round"
     d="m 140.364,4.03 c 3.4,-0.6 7.4,-0.2 10.6,-0.3 -3.2,-3 -0.7,5.9 -1.6,8 0,14.6 0.3,29.2 -0.3,43.8 -0.2,3.9 0.1,8.8 -0.3,12.3 1,-0.4 -2.2,-0.2 -3.1,-0.2 -2.2,0 -4.5,0 -6.7,0 0,1.6 -1.2,4.4 1.6,3.6 3.2,-0.1 6.6,0.3 9.8,-0.2 3.4,-1.8 1.8,-6.5 2.3,-9.5 0.3,-15.6 0.7,-31.1 0.3,-46.7 -0.2,-4.4 0.5,-8.9 0,-13.3 -1.5,-2.2 -4.5,-1 -6.8,-1.3 -2,0.2 -4.8,-0.5 -6.1,0.7 0.1,1 0.3,2.3 0.3,3.2 z"
     id="path59430" />
  <text
     x="21.164"
     y="62.83"
     style="color:#000000;font-weight:bold;font-size:25.7px;font-family:'Trebuchet MS';overflow:visible;fill:#fd3301;stroke-width:0.66;-inkscape-font-specification:'Trebuchet MS Bold';font-style:normal;font-stretch:normal;font-variant:normal"
     id="text59432">1</text>
  <text
     x="20.564"
     y="26.63"
     style="color:#000000;font-weight:bold;font-size:25.7px;font-family:'Trebuchet MS';overflow:visible;fill:#fd3301;stroke-width:0.66;-inkscape-font-specification:'Trebuchet MS Bold';font-style:normal;font-stretch:normal;font-variant:normal"
     id="text59434">6</text>
  <text
     x="62.664"
     y="26.63"
     style="color:#000000;font-weight:bold;font-size:25.7px;font-family:'Trebuchet MS';overflow:visible;fill:#fd3301;stroke-width:0.66;-inkscape-font-specification:'Trebuchet MS Bold';font-style:normal;font-stretch:normal;font-variant:normal"
     id="text59436">4</text>
  <text
     x="111.964"
     y="62.83"
     style="color:#000000;font-weight:bold;font-size:25.7px;font-family:'Trebuchet MS';overflow:visible;fill:#fd3301;stroke-width:0.66;-inkscape-font-specification:'Trebuchet MS Bold';font-style:normal;font-stretch:normal;font-variant:normal"
     id="text59438">8</text>
  <text
     x="101.964"
     y="26.63"
     style="color:#000000;font-weight:bold;font-size:25.7px;font-family:'Trebuchet MS';overflow:visible;fill:#fd3301;stroke-width:0.66;-inkscape-font-specification:'Trebuchet MS Bold';font-style:normal;font-stretch:normal;font-variant:normal"
     id="text59440">24</text>
  <text
     x="52.664"
     y="62.83"
     style="color:#000000;font-style:normal;font-variant:normal;font-weight:bold;font-stretch:normal;font-size:25.7px;font-family:'Trebuchet MS';-inkscape-font-specification:'Trebuchet MS Bold';overflow:visible;fill:#fd3301;stroke-width:0.66"
     id="text59442">−9</text>
</svg>
